<svg id="Layer_1" data-name="Layer 1" xmlns="http://www.w3.org/2000/svg" viewBox="0 0 792 792"><defs><style>.cls-1{fill:#1a99bb;}.cls-2{fill:#fff;}</style></defs><rect class="cls-1" width="792" height="792"/><path class="cls-2" d="M114,244.93q-20.85,26.88-20.85,71.5,0,52.31,25.79,78.63-19.57-8.22-31.09-29.8Q76.3,343.86,76.3,317a93.25,93.25,0,0,1,6-34Q88,267.61,95.87,259A66.1,66.1,0,0,1,114,244.93ZM266.11,372.21h3.66l-5.85,30.9a196.28,196.28,0,0,1-32.73,9.69,156.79,156.79,0,0,1-30.36,3.11q-44.25,0-69.31-25.78-25.05-25.61-25.05-74.43,0-48.65,26.88-74.42,26.7-25.6,70.59-25.61a192,192,0,0,1,64.37,11.52q-1.47,23.06-1.47,27.25,0,3.84.19,7.5v4.39a171,171,0,0,1-.92,18.1H263q-11.34-55.21-63.27-55.22-35.1,0-55.95,22.85-20.85,22.68-20.85,65.47,0,37.49,19.2,60.89,19,23.41,57.42,23.41a88.55,88.55,0,0,0,38.77-8.41Q255.69,385.38,266.11,372.21Z"/><path class="cls-2" d="M330.3,219.15V411.89q-9.33,0-37.12,2.19v-3.29q22.13-4.56,22.12-34V255.72q0-16.28-4.57-24.14-4.58-7.68-17.55-11.33V217Q310.73,218.78,330.3,219.15Zm36.75,81.19L468.54,411.89H448.43L359,312.41v64.37Q359,392,364,399.45q4.74,7.68,17.73,11.34v3.29q-24.14-2.19-37.85-2.19V219.15q25.05-.92,37.85-2.2v3.3q-13.71,3.1-18.1,12.25Q359,241.65,359,272.91v33.65ZM494.14,411.89h-7.68l-109-120,41.87-33.47q21.58-17.17,21.58-26.33,0-7.12-11.89-11.88V217q8.23,0,22.13,1.28,12.43.93,18.29.92,5.67,0,14.26-.73Q496,217.51,507,217v3.3q-25.79,6.57-56.14,30.17l-12.26,9.51a16,16,0,0,0-2.37,1.83l-38.4,30.9,72.78,80.64q33.09,36.94,49.92,37.49v3.29Q495.05,411.89,494.14,411.89Z"/><path class="cls-2" d="M571.68,219.15V411.89q-15.91.54-38.4,2.19v-3.29q23.4-6.39,23.4-49.56V266q0-38-23.4-45.71V217Q552.3,218.78,571.68,219.15Zm13.53,192.74V219.15l31.27-2.2q23.22,0,36.94,14.45Q667,246,667,268.52q0,28.17-24.5,40.6,39.49,9,39.5,51.38A57.92,57.92,0,0,1,669,398q-13.15,16.1-42.42,16.09a233.87,233.87,0,0,1-23.41-1.28Q591.79,411.89,585.21,411.89Zm15-142.82v36.76h14.08q17.55,0,27.06-9.51t9.51-27.43q0-18.47-10.24-28.16a34.77,34.77,0,0,0-24.5-9.51q-7.87,0-12.62,3.84Q600.2,244.93,600.21,269.07Zm18.28,49.74H600.21v32.92q0,34.56,7.49,43.7,6.4,4.94,19.2,4.94,21.4,0,30.54-12.44,8.77-12.44,8.78-29.07,0-13.35-5.67-22.86-5.85-9.69-14.63-13.53Q636.61,318.81,618.49,318.81Zm51-15.54q11.16-14.64,11.16-34.75A63.74,63.74,0,0,0,674.45,240q-6.41-13-14.81-17.38,18.11,3.84,27.79,15.55a40.45,40.45,0,0,1,1.65,50.47Q681,299.61,669.51,303.27Zm9.15,103.5q16.82-17.75,16.82-45.35,0-29.62-17.56-47.91,34.74,12.62,34.75,46.44A48.25,48.25,0,0,1,703,389.58,45.51,45.51,0,0,1,678.66,406.77Z"/><path class="cls-2" d="M124.84,441.29h5.94V570.71h-5.94Z"/><path class="cls-2" d="M158.86,477.29h5.76v15.3q8.82-17.28,31.5-17.28,32,0,32,33.48v61.92H222.4V510.59q0-14.94-5.4-22-6.3-8.1-20.7-8.1-26.46,0-30.78,23.94-.36,2.7-.63,6.75t-.27,9.45v50h-5.76Z"/><path class="cls-2" d="M254.44,451.73v25.56h18.72v5H254.44v88.38h-5.76v-119Z"/><path class="cls-2" d="M321.22,573.05q-20,0-30.42-14.76-9.18-13.14-9.18-34t9.18-33.84q10.44-15.12,30.42-15.12,19.62,0,29.88,13.5,9.36,12.06,9.36,32.4v3.42h-72.9v1.44q0,17.28,8.1,28.8,9.18,13.32,25.56,13.32,22.68,0,30.78-21.24l4.68,2.52a35.55,35.55,0,0,1-11.34,15.66Q335.26,573.05,321.22,573.05Zm33.12-53.64q0-16.38-7.74-27-8.64-12.06-24.3-12.06-16.2,0-25.38,11.7-8.1,10.62-9.18,27.36Z"/><path class="cls-2" d="M380.44,477.29h5.76v15.48q7.2-15.3,31-15.12l-3.6,5q-6.66,0-9.54,1.08-6.12,1.8-12.6,9.18-5.22,6.12-5.22,15.66v62.1h-5.76Z"/><path class="cls-2" d="M431,439.85c2.63,0,4,2.82,4,8.46s-1.33,8.64-4,8.64-3.78-2.88-3.78-8.64S428.5,439.85,431,439.85Zm-2.7,37.44h5.58v93.42h-5.58Z"/><path class="cls-2" d="M464.49,490.07q10.8-14.76,31.32-14.76t31.5,14.76q9.72,13,9.72,34.2t-9.72,34.38q-11.16,14.4-31.5,14.4-20.52,0-31.32-14.4-9.72-13.14-9.72-34.38T464.49,490.07Zm4.14,64.62q9.36,13.5,27.18,13.5t27.36-13.5q8.1-11.52,8.1-30.42,0-18.72-8.1-30.42-9.54-13.5-27.36-13.5-18,0-27.18,13.5-8.1,11.7-8.1,30.42Q460.53,543.17,468.63,554.69Z"/><path class="cls-2" d="M557.37,477.29h5.76v15.48q7.2-15.3,31-15.12l-3.6,5q-6.66,0-9.54,1.08-6.12,1.8-12.6,9.18-5.22,6.12-5.22,15.66v62.1h-5.76Z"/><path class="cls-2" d="M636.75,567.83q11.34,0,18.72-4.86,8.82-5.58,8.82-16.38,0-13-18.54-18l-1.71-.54a28.52,28.52,0,0,0-3.15-.72q-22.86-5.94-29.52-11.16-7.56-5.94-7.56-16.2,0-12.24,10.44-18.9,9-5.76,21.6-5.76,13,0,21.42,6.84,8.64,7.2,10.08,20h-5.58q-2.88-21.78-26.64-21.78-9.9,0-16.92,4.32-8.46,5.22-8.46,14.58,0,14,28.62,21.24a3.48,3.48,0,0,0,1.8.54q14.76,3.78,20.52,7.74,9.54,6.3,9.54,18,0,12.6-10.62,20-9.54,6.3-22.68,6.3-14.94,0-24.48-7.38-9.9-7.92-11.16-22.68h5.58Q611.37,567.83,636.75,567.83Z"/></svg>